<mxfile host="app.diagrams.net" modified="2021-10-05T05:42:53.663Z" agent="5.0 (Windows NT 10.0; Win64; x64) AppleWebKit/537.36 (KHTML, like Gecko) Chrome/91.0.4472.124 Safari/537.36" etag="ZDjEkQ6PdEddh4We7f16" version="15.0.4" type="github">
  <diagram id="b06QNydrSDCgGrgIvx99" name="Page-1">
    <mxGraphModel dx="1021" dy="528" grid="0" gridSize="10" guides="1" tooltips="1" connect="1" arrows="1" fold="1" page="1" pageScale="1" pageWidth="1654" pageHeight="2336" background="#F4F1DE" math="0" shadow="0">
      <root>
        <mxCell id="0" />
        <mxCell id="1" parent="0" />
        <mxCell id="h2RZvB9a_ah4TZlPBoID-3" value="" style="edgeStyle=orthogonalEdgeStyle;rounded=0;orthogonalLoop=1;jettySize=auto;html=1;fillColor=#F2CC8F;strokeColor=#E07A5F;fontSize=16;fontStyle=1;labelBackgroundColor=#F4F1DE;fontColor=#393C56;fontFamily=Comic Sans MS;" edge="1" parent="1" source="h2RZvB9a_ah4TZlPBoID-1" target="h2RZvB9a_ah4TZlPBoID-2">
          <mxGeometry relative="1" as="geometry" />
        </mxCell>
        <mxCell id="h2RZvB9a_ah4TZlPBoID-1" value="新產品PR 後" style="rounded=1;whiteSpace=wrap;html=1;fillColor=#d5e8d4;strokeColor=#82b366;fontSize=16;fontStyle=1;fontFamily=Comic Sans MS;" vertex="1" parent="1">
          <mxGeometry x="210" y="130" width="120" height="60" as="geometry" />
        </mxCell>
        <mxCell id="h2RZvB9a_ah4TZlPBoID-5" value="" style="edgeStyle=orthogonalEdgeStyle;rounded=0;orthogonalLoop=1;jettySize=auto;html=1;fillColor=#F2CC8F;strokeColor=#E07A5F;fontSize=16;fontStyle=1;labelBackgroundColor=#F4F1DE;fontColor=#393C56;fontFamily=Comic Sans MS;" edge="1" parent="1" source="h2RZvB9a_ah4TZlPBoID-2" target="h2RZvB9a_ah4TZlPBoID-4">
          <mxGeometry relative="1" as="geometry" />
        </mxCell>
        <mxCell id="h2RZvB9a_ah4TZlPBoID-7" value="" style="edgeStyle=orthogonalEdgeStyle;rounded=0;orthogonalLoop=1;jettySize=auto;html=1;startArrow=none;fillColor=#F2CC8F;strokeColor=#E07A5F;fontSize=16;fontStyle=1;labelBackgroundColor=#F4F1DE;fontColor=#393C56;fontFamily=Comic Sans MS;" edge="1" parent="1" source="h2RZvB9a_ah4TZlPBoID-2" target="h2RZvB9a_ah4TZlPBoID-6">
          <mxGeometry relative="1" as="geometry" />
        </mxCell>
        <mxCell id="h2RZvB9a_ah4TZlPBoID-4" value="VBA執行後自動產出&lt;span style=&quot;font-size: 16px;&quot;&gt;兩份結構化excel 檔&lt;/span&gt;&lt;br style=&quot;font-size: 16px;&quot;&gt;(機種_DRXX_SUMMARY, 機種_DRXX_FACA)" style="whiteSpace=wrap;html=1;rounded=0;fontSize=16;fontStyle=1;fillColor=#d5e8d4;strokeColor=#82b366;fontFamily=Comic Sans MS;" vertex="1" parent="1">
          <mxGeometry x="140" y="307" width="260" height="85" as="geometry" />
        </mxCell>
        <mxCell id="h2RZvB9a_ah4TZlPBoID-11" value="" style="edgeStyle=orthogonalEdgeStyle;curved=0;rounded=1;sketch=0;orthogonalLoop=1;jettySize=auto;html=1;fontColor=#393C56;strokeColor=#E07A5F;fillColor=#F2CC8F;fontFamily=Comic Sans MS;" edge="1" parent="1" source="h2RZvB9a_ah4TZlPBoID-6" target="h2RZvB9a_ah4TZlPBoID-10">
          <mxGeometry relative="1" as="geometry" />
        </mxCell>
        <mxCell id="h2RZvB9a_ah4TZlPBoID-6" value="INT 寄eamil&amp;nbsp; 給PM" style="whiteSpace=wrap;html=1;rounded=0;fillColor=#d5e8d4;strokeColor=#82b366;fontSize=16;fontStyle=1;fontFamily=Comic Sans MS;" vertex="1" parent="1">
          <mxGeometry x="210" y="426" width="120" height="60" as="geometry" />
        </mxCell>
        <mxCell id="h2RZvB9a_ah4TZlPBoID-2" value="&lt;span style=&quot;font-size: 16px;&quot;&gt;INT 將PR資料填入VBA excel 檔&lt;/span&gt;" style="rounded=0;whiteSpace=wrap;html=1;fillColor=#d5e8d4;strokeColor=#82b366;fontSize=16;fontStyle=1;fontFamily=Comic Sans MS;" vertex="1" parent="1">
          <mxGeometry x="210" y="221" width="120" height="59" as="geometry" />
        </mxCell>
        <mxCell id="h2RZvB9a_ah4TZlPBoID-8" value="" style="edgeStyle=orthogonalEdgeStyle;rounded=0;orthogonalLoop=1;jettySize=auto;html=1;endArrow=none;fillColor=#F2CC8F;strokeColor=#E07A5F;fontSize=16;fontStyle=1;labelBackgroundColor=#F4F1DE;fontColor=#393C56;fontFamily=Comic Sans MS;" edge="1" parent="1" source="h2RZvB9a_ah4TZlPBoID-4" target="h2RZvB9a_ah4TZlPBoID-2">
          <mxGeometry relative="1" as="geometry">
            <mxPoint x="541" y="170" as="sourcePoint" />
            <mxPoint x="270" y="400" as="targetPoint" />
          </mxGeometry>
        </mxCell>
        <mxCell id="h2RZvB9a_ah4TZlPBoID-9" value="" style="endArrow=none;html=1;labelBackgroundColor=#F4F1DE;strokeColor=#E07A5F;fontColor=#393C56;fontFamily=Comic Sans MS;" edge="1" parent="1">
          <mxGeometry width="50" height="50" relative="1" as="geometry">
            <mxPoint x="460" y="1030" as="sourcePoint" />
            <mxPoint x="450" y="60" as="targetPoint" />
          </mxGeometry>
        </mxCell>
        <mxCell id="h2RZvB9a_ah4TZlPBoID-13" value="" style="edgeStyle=orthogonalEdgeStyle;curved=0;rounded=1;sketch=0;orthogonalLoop=1;jettySize=auto;html=1;fontColor=#393C56;strokeColor=#E07A5F;fillColor=#F2CC8F;fontFamily=Comic Sans MS;" edge="1" parent="1" source="h2RZvB9a_ah4TZlPBoID-10" target="h2RZvB9a_ah4TZlPBoID-12">
          <mxGeometry relative="1" as="geometry" />
        </mxCell>
        <mxCell id="h2RZvB9a_ah4TZlPBoID-10" value="各PM 收到資料後，再存入MD共用資料夾" style="whiteSpace=wrap;html=1;rounded=0;fontSize=16;fontColor=#393C56;fontStyle=1;strokeColor=#E07A5F;fillColor=#F2CC8F;fontFamily=Comic Sans MS;" vertex="1" parent="1">
          <mxGeometry x="186" y="531" width="169" height="60" as="geometry" />
        </mxCell>
        <mxCell id="h2RZvB9a_ah4TZlPBoID-17" value="" style="edgeStyle=orthogonalEdgeStyle;curved=0;rounded=1;sketch=0;orthogonalLoop=1;jettySize=auto;html=1;fontColor=#393C56;strokeColor=#E07A5F;fillColor=#F2CC8F;fontFamily=Comic Sans MS;" edge="1" parent="1" source="h2RZvB9a_ah4TZlPBoID-12" target="h2RZvB9a_ah4TZlPBoID-16">
          <mxGeometry relative="1" as="geometry" />
        </mxCell>
        <mxCell id="h2RZvB9a_ah4TZlPBoID-12" value="資料夾資料匯入Sever&lt;br&gt;(一週一次)" style="whiteSpace=wrap;html=1;rounded=0;fontSize=16;fontColor=#393C56;fontStyle=1;strokeColor=#E07A5F;fillColor=#F2CC8F;fontFamily=Comic Sans MS;" vertex="1" parent="1">
          <mxGeometry x="210" y="636" width="120" height="71" as="geometry" />
        </mxCell>
        <mxCell id="h2RZvB9a_ah4TZlPBoID-16" value="&lt;font style=&quot;font-size: 16px&quot;&gt;&lt;b&gt;PR 資料建檔完成&lt;/b&gt;&lt;/font&gt;" style="rounded=1;whiteSpace=wrap;html=1;sketch=0;fontColor=#393C56;strokeColor=#E07A5F;fillColor=#F2CC8F;fontFamily=Comic Sans MS;" vertex="1" parent="1">
          <mxGeometry x="201" y="762" width="139" height="60" as="geometry" />
        </mxCell>
        <mxCell id="h2RZvB9a_ah4TZlPBoID-18" value="" style="edgeStyle=orthogonalEdgeStyle;rounded=0;orthogonalLoop=1;jettySize=auto;html=1;fillColor=#F2CC8F;strokeColor=#E07A5F;fontSize=16;fontStyle=1;labelBackgroundColor=#F4F1DE;fontColor=#393C56;fontFamily=Comic Sans MS;" edge="1" parent="1" source="h2RZvB9a_ah4TZlPBoID-19" target="h2RZvB9a_ah4TZlPBoID-25">
          <mxGeometry relative="1" as="geometry" />
        </mxCell>
        <mxCell id="h2RZvB9a_ah4TZlPBoID-19" value="新產品PR 後" style="rounded=1;whiteSpace=wrap;html=1;fillColor=#d5e8d4;strokeColor=#82b366;fontSize=16;fontStyle=1;fontFamily=Comic Sans MS;" vertex="1" parent="1">
          <mxGeometry x="607" y="130" width="120" height="60" as="geometry" />
        </mxCell>
        <mxCell id="h2RZvB9a_ah4TZlPBoID-20" value="" style="edgeStyle=orthogonalEdgeStyle;rounded=0;orthogonalLoop=1;jettySize=auto;html=1;fillColor=#F2CC8F;strokeColor=#E07A5F;fontSize=16;fontStyle=1;labelBackgroundColor=#F4F1DE;fontColor=#393C56;fontFamily=Comic Sans MS;" edge="1" parent="1" source="h2RZvB9a_ah4TZlPBoID-25" target="h2RZvB9a_ah4TZlPBoID-22">
          <mxGeometry relative="1" as="geometry" />
        </mxCell>
        <mxCell id="h2RZvB9a_ah4TZlPBoID-21" value="" style="edgeStyle=orthogonalEdgeStyle;rounded=0;orthogonalLoop=1;jettySize=auto;html=1;startArrow=none;fillColor=#F2CC8F;strokeColor=#E07A5F;fontSize=16;fontStyle=1;labelBackgroundColor=#F4F1DE;fontColor=#393C56;fontFamily=Comic Sans MS;" edge="1" parent="1" source="h2RZvB9a_ah4TZlPBoID-25" target="h2RZvB9a_ah4TZlPBoID-24">
          <mxGeometry relative="1" as="geometry" />
        </mxCell>
        <mxCell id="h2RZvB9a_ah4TZlPBoID-22" value="VBA執行後自動產出&lt;span style=&quot;font-size: 16px;&quot;&gt;兩份結構化excel 檔&lt;/span&gt;&lt;br style=&quot;font-size: 16px;&quot;&gt;(機種_DRXX_SUMMARY, 機種_DRXX_FACA)" style="whiteSpace=wrap;html=1;rounded=0;fontSize=16;fontStyle=1;fillColor=#d5e8d4;strokeColor=#82b366;fontFamily=Comic Sans MS;" vertex="1" parent="1">
          <mxGeometry x="537" y="307" width="260" height="85" as="geometry" />
        </mxCell>
        <mxCell id="h2RZvB9a_ah4TZlPBoID-24" value="INT 將兩份excel 於UI介面上傳" style="whiteSpace=wrap;html=1;rounded=0;fillColor=#d5e8d4;strokeColor=#82b366;fontSize=16;fontStyle=1;fontFamily=Comic Sans MS;" vertex="1" parent="1">
          <mxGeometry x="591" y="426" width="151" height="60" as="geometry" />
        </mxCell>
        <mxCell id="h2RZvB9a_ah4TZlPBoID-25" value="&lt;span style=&quot;font-size: 16px;&quot;&gt;INT 將PR資料填入VBA excel 檔&lt;/span&gt;" style="rounded=0;whiteSpace=wrap;html=1;fillColor=#d5e8d4;strokeColor=#82b366;fontSize=16;fontStyle=1;fontFamily=Comic Sans MS;" vertex="1" parent="1">
          <mxGeometry x="607" y="221" width="120" height="59" as="geometry" />
        </mxCell>
        <mxCell id="h2RZvB9a_ah4TZlPBoID-26" value="" style="edgeStyle=orthogonalEdgeStyle;rounded=0;orthogonalLoop=1;jettySize=auto;html=1;endArrow=none;fillColor=#F2CC8F;strokeColor=#E07A5F;fontSize=16;fontStyle=1;labelBackgroundColor=#F4F1DE;fontColor=#393C56;fontFamily=Comic Sans MS;" edge="1" parent="1" source="h2RZvB9a_ah4TZlPBoID-22" target="h2RZvB9a_ah4TZlPBoID-25">
          <mxGeometry relative="1" as="geometry">
            <mxPoint x="938" y="170" as="sourcePoint" />
            <mxPoint x="667" y="400" as="targetPoint" />
          </mxGeometry>
        </mxCell>
        <mxCell id="h2RZvB9a_ah4TZlPBoID-29" value="" style="edgeStyle=orthogonalEdgeStyle;curved=0;rounded=1;sketch=0;orthogonalLoop=1;jettySize=auto;html=1;fontColor=#393C56;strokeColor=#E07A5F;fillColor=#F2CC8F;fontFamily=Comic Sans MS;" edge="1" parent="1" target="h2RZvB9a_ah4TZlPBoID-31">
          <mxGeometry relative="1" as="geometry">
            <mxPoint x="666.5" y="486.0000000000002" as="sourcePoint" />
          </mxGeometry>
        </mxCell>
        <mxCell id="h2RZvB9a_ah4TZlPBoID-31" value="&lt;font style=&quot;font-size: 16px&quot;&gt;&lt;b&gt;PR 資料建檔完成&lt;/b&gt;&lt;/font&gt;" style="rounded=1;whiteSpace=wrap;html=1;sketch=0;fontColor=#393C56;strokeColor=#E07A5F;fillColor=#F2CC8F;fontFamily=Comic Sans MS;" vertex="1" parent="1">
          <mxGeometry x="597.5" y="537" width="139" height="60" as="geometry" />
        </mxCell>
      </root>
    </mxGraphModel>
  </diagram>
</mxfile>
